<?xml version="1.0" encoding="utf-8"?>
<svg version="1.1" id="Layer_1" xmlns="http://www.w3.org/2000/svg" xmlns:xlink="http://www.w3.org/1999/xlink" x="0px" y="0px"
	 width="64px" height="64px" viewBox="0 0 64 64" enable-background="new 0 0 64 64" xml:space="preserve">
<rect x="-0.515" display="none" fill="#588FCB" width="67.44" height="65.346"/>
<g>
	<path fill="#FFFFFF" d="M27.531,43.224c-0.006,0.009-0.013,0.014-0.017,0.022c-0.144,0.233-0.318,0.451-0.52,0.65
		c-0.057,0.059-0.122,0.105-0.186,0.16c-0.09,0.079-0.175,0.166-0.276,0.237c-0.074,0.052-0.153,0.089-0.228,0.134
		c-0.045,0.027-0.09,0.057-0.137,0.081c-0.232,0.123-0.472,0.219-0.717,0.285c-0.041,0.011-0.082,0.018-0.123,0.027
		c-0.263,0.063-0.529,0.103-0.795,0.103c-0.001,0-0.003,0-0.003,0c-0.001,0-0.002,0-0.002,0c-0.017,0-0.033-0.005-0.048-0.007
		c-0.276-0.004-0.548-0.039-0.816-0.107c-0.09-0.023-0.178-0.067-0.267-0.099c-0.195-0.067-0.387-0.141-0.567-0.243
		c-0.033-0.017-0.067-0.022-0.098-0.041c-0.121-0.072-0.222-0.163-0.331-0.246c-0.063-0.049-0.13-0.089-0.19-0.143
		c-0.201-0.177-0.378-0.375-0.53-0.589c-0.006-0.008-0.013-0.012-0.018-0.021c-4.961-7.1-10.429-11.816-16.733-14.345
		C4.808,30.04,4.723,31.011,4.723,32c0,12.581,10.199,22.78,22.78,22.78c12.581,0,22.78-10.199,22.78-22.78
		c0-3.598-0.855-6.988-2.342-10.014C40.965,24.76,34.545,31.519,27.531,43.224z"/>
	<path fill="#FFFFFF" d="M24.24,35.288c4.982-7.629,11.303-15.231,19.619-19.124c-4.141-4.276-9.934-6.945-16.356-6.945
		c-9.128,0-16.981,5.382-20.616,13.136C13.355,24.813,19.108,29.104,24.24,35.288z"/>
	<path fill="#FFFFFF" d="M55.777,13.491c-4.381,0-8.332,0.995-11.918,2.673c1.65,1.705,3.025,3.669,4.082,5.822
		c2.521-1.003,5.115-1.499,7.836-1.499c1.934,0,3.5-1.566,3.5-3.499S57.711,13.491,55.777,13.491z"/>
	<path d="M25.451,44.794c-0.041,0.011-0.082,0.018-0.123,0.027C25.369,44.812,25.41,44.805,25.451,44.794z"/>
	<path d="M24.527,44.924c0,0,0.001,0,0.002,0c-0.016,0-0.034-0.005-0.05-0.007C24.495,44.919,24.511,44.924,24.527,44.924z"/>
	<path d="M26.995,43.896c-0.056,0.058-0.122,0.106-0.186,0.16C26.873,44.002,26.938,43.955,26.995,43.896z"/>
	<path d="M26.305,44.428c-0.045,0.027-0.09,0.057-0.137,0.081C26.215,44.484,26.26,44.455,26.305,44.428z"/>
	<path d="M22.732,44.427c0.031,0.019,0.065,0.024,0.098,0.041c-0.15-0.082-0.291-0.182-0.429-0.287
		C22.51,44.264,22.611,44.354,22.732,44.427z"/>
	<path d="M23.664,44.81c-0.091-0.023-0.178-0.068-0.267-0.099C23.486,44.742,23.573,44.786,23.664,44.81z"/>
	<path d="M22.211,44.038c-0.194-0.172-0.373-0.367-0.53-0.589C21.833,43.663,22.01,43.861,22.211,44.038z"/>
	<path fill="none" d="M24.24,35.288c1.077,1.299,2.133,2.668,3.157,4.135c0.821,1.174,0.817,2.674,0.117,3.823
		c0.004-0.009,0.011-0.014,0.017-0.022c7.014-11.705,13.434-18.464,20.411-21.237c-1.057-2.153-2.432-4.117-4.082-5.822
		C35.543,20.057,29.222,27.659,24.24,35.288z"/>
	<path d="M23.397,44.711c-0.192-0.067-0.384-0.14-0.567-0.243C23.01,44.57,23.202,44.644,23.397,44.711z"/>
	<path d="M26.533,44.294c0.101-0.071,0.186-0.158,0.276-0.237c-0.158,0.138-0.325,0.266-0.504,0.371
		C26.38,44.383,26.459,44.346,26.533,44.294z"/>
	<path d="M27.514,43.246c-0.148,0.243-0.325,0.458-0.52,0.65C27.196,43.697,27.371,43.479,27.514,43.246z"/>
	<path fill="none" d="M21.663,43.429c0.005,0.009,0.012,0.013,0.018,0.021c-0.778-1.097-0.887-2.593-0.152-3.821
		c0.858-1.431,1.76-2.887,2.711-4.34c-5.132-6.184-10.885-10.476-17.353-12.933c-0.98,2.091-1.652,4.35-1.958,6.729
		C11.234,31.612,16.702,36.329,21.663,43.429z"/>
	<path d="M22.401,44.181c-0.063-0.048-0.131-0.09-0.19-0.143C22.271,44.092,22.338,44.132,22.401,44.181z"/>
	<path d="M26.168,44.509c-0.229,0.121-0.469,0.217-0.717,0.285C25.697,44.728,25.936,44.632,26.168,44.509z"/>
	<path d="M24.479,44.917c-0.272-0.003-0.545-0.039-0.816-0.107C23.932,44.878,24.204,44.913,24.479,44.917z"/>
	<path d="M24.533,44.924c0.267,0,0.533-0.039,0.795-0.103c-0.261,0.062-0.527,0.103-0.798,0.103
		C24.53,44.924,24.531,44.924,24.533,44.924z"/>
	<path fill="none" d="M21.681,43.449c0.157,0.222,0.336,0.417,0.53,0.589c0.059,0.053,0.127,0.095,0.19,0.143
		c0.138,0.105,0.279,0.205,0.429,0.287c0.183,0.104,0.375,0.176,0.567,0.243c0.089,0.03,0.175,0.075,0.267,0.099
		c0.271,0.068,0.544,0.104,0.816,0.107c0.016,0.002,0.034,0.007,0.05,0.007c0.271,0,0.537-0.041,0.798-0.103
		c0.041-0.01,0.082-0.017,0.123-0.027c0.249-0.068,0.489-0.164,0.717-0.285c0.046-0.024,0.091-0.054,0.137-0.081
		c0.179-0.105,0.346-0.233,0.504-0.371c0.063-0.054,0.13-0.103,0.186-0.16c0.194-0.192,0.371-0.407,0.52-0.65
		c0.7-1.149,0.704-2.649-0.117-3.823c-1.023-1.467-2.08-2.836-3.157-4.135c-0.951,1.453-1.853,2.909-2.711,4.34
		C20.794,40.856,20.903,42.353,21.681,43.449z"/>
</g>
</svg>
